<svg height="512" viewBox="0 0 128 128" width="512" xmlns="http://www.w3.org/2000/svg"><g><path d="m103.24 57.184h2.06a5.459 5.459 0 0 0 5.452-5.453v-12.384a5.458 5.458 0 0 0 -5.452-5.447h-2.073a11.361 11.361 0 0 0 -11.341-11.06h-37.815v-3.84a1.749 1.749 0 0 0 -1.75-1.75h-8.314a1.749 1.749 0 0 0 -1.75 1.75v3.84h-3.982a11.368 11.368 0 0 0 -11.355 11.36v22.569a4.5 4.5 0 0 0 4.495 4.5h.619v.85a4.588 4.588 0 0 0 4.583 4.581h.155v4.558a1.75 1.75 0 0 0 3.5 0v-4.558h.155a4.589 4.589 0 0 0 4.584-4.584v-.85h.618a4.5 4.5 0 0 0 4.5-4.5v-6.039a3.93 3.93 0 0 1 3.92-3.927h13.7a3.93 3.93 0 0 1 3.925 3.925v25.411h-35.7a11.507 11.507 0 0 0 -11.495 11.5v10.1h-1.532a5.7 5.7 0 0 0 -5.7 5.7v1.625a5.7 5.7 0 0 0 5.7 5.7h82.106a5.7 5.7 0 0 0 5.7-5.7v-1.625a5.7 5.7 0 0 0 -5.7-5.7h-1.813zm4.01-17.837v12.384a1.955 1.955 0 0 1 -1.952 1.953h-2.058v-16.284h2.06a1.955 1.955 0 0 1 1.95 1.947zm-61.493-18.597h4.814v2.09h-4.814zm-4.246 41.364a1.086 1.086 0 0 1 -1.084 1.086h-3.81a1.084 1.084 0 0 1 -1.083-1.084v-.85h5.977zm26.233-18.814h-13.695a7.434 7.434 0 0 0 -7.425 7.425v6.042a1 1 0 0 1 -1 1h-14.209a1 1 0 0 1 -.995-1v-22.567a7.864 7.864 0 0 1 7.855-7.855h53.611a7.863 7.863 0 0 1 7.854 7.855v41.936h-24.571v-25.409a7.434 7.434 0 0 0 -7.425-7.427zm-26.233 36.336v1.835a1.75 1.75 0 0 0 3.5 0v-1.835h11.42v12.628h-11.42v-1.741a1.75 1.75 0 0 0 -3.5 0v1.741h-3.8v-12.628zm65.739 23.792v1.625a2.2 2.2 0 0 1 -2.2 2.2h-82.103a2.2 2.2 0 0 1 -2.2-2.2v-1.625a2.2 2.2 0 0 1 2.2-2.2h82.106a2.2 2.2 0 0 1 2.197 2.2zm-79.279-5.7v-10.1a8 8 0 0 1 6.245-7.8v14.186a1.75 1.75 0 0 0 1.75 1.75h22.215a1.751 1.751 0 0 0 1.75-1.75v-14.378h39.809v18.094z"/><path d="m87.256 49.908a8.326 8.326 0 1 0 -8.325-8.326 8.335 8.335 0 0 0 8.325 8.326zm0-13.152a4.826 4.826 0 1 1 -4.825 4.826 4.832 4.832 0 0 1 4.825-4.826z"/><path d="m40.31 31.786a4.7 4.7 0 1 0 4.7 4.7 4.708 4.708 0 0 0 -4.7-4.7zm0 5.9a1.2 1.2 0 1 1 1.2-1.2 1.2 1.2 0 0 1 -1.2 1.202z"/><path d="m80.681 69.72h13.151a1.75 1.75 0 0 0 1.75-1.75v-7.94a1.75 1.75 0 0 0 -1.75-1.75h-13.151a1.75 1.75 0 0 0 -1.75 1.75v7.94a1.75 1.75 0 0 0 1.75 1.75zm1.75-7.94h9.651v4.44h-9.651z"/></g></svg>