<svg id="svg14514" height="512" viewBox="0 0 16.933333 16.933334" width="512" xmlns="http://www.w3.org/2000/svg" xmlns:svg="http://www.w3.org/2000/svg"><g id="layer1" transform="translate(0 -280.067)"><path id="path6034" d="m14.019298 280.5953a.26460982.26460982 0 0 0 -.02635.002.26460982.26460982 0 0 0 -.158131.076l-7.3762923 7.37578 2.566252 2.56625c.150238.14855.235193.35149.235643.56275a.52921959.52921959 0 0 1 0 .001v2.11712h.529683a.26460982.26460982 0 0 0 .2501153-.34778l-.1798343-.5426.5431183-.1819a.26460982.26460982 0 0 0 .165883-.33383l-.179835-.54312.541052-.18138a.26460982.26460982 0 0 0 .16795-.33435l-.181385-.5426.543118-.18191a.26460982.26460982 0 0 0 .167949-.33383l-.179834-.54311.541051-.17932a.26460982.26460982 0 0 0 .16795-.33641l-.181901-.54261.543118-.17983a.26460982.26460982 0 0 0 .16795-.3359l-.181386-.54312.542603-.17931a.26460982.26460982 0 0 0 .167949-.33642l-.181385-.54053.543121-.1819a.26460982.26460982 0 0 0 .167947-.33383l-.181901-.54312.543121-.18139a.26460982.26460982 0 0 0 .167947-.33434l-.181902-.54261.543121-.1819a.26460982.26460982 0 0 0 .167947-.33383l-.181385-.54312.542605-.18138a.26460982.26460982 0 0 0 .167947-.33435l-.265615-.79271a.26460982.26460982 0 0 0 -.0646-.10387l-.792716-.79479a.26460982.26460982 0 0 0 -.190685-.0779zm-8.202083 7.67343a.26460982.26460982 0 0 0 -.1834515.078l-3.9687499 3.96875a.26460982.26460982 0 0 0 -.078031.18759v1.3224a.26460982.26460982 0 0 0 .2656152.26355c.6438212 0 .9077376.0616 1.1151789.1912.2074386.12965.4071488.38389.8144193.79117l.9549818.95498c.5972386.59723 1.5711119.59724 2.1683429 0l1.747697-1.74977a.26460982.26460982 0 0 0 .07855-.18758v-2.91042a.26460982.26460982 0 0 0 -.07855-.18758l-2.644283-2.64429a.26460982.26460982 0 0 0 -.1912039-.078zm.00362 1.85208c.1461187.00001.2645837.11846.2645837.26459 0 .14612-.118465.26458-.2645837.26458s-.2645833-.11846-.2645833-.26458c0-.14613.1184646-.26458.2645833-.26459zm1.0583337.79375c.146129 0 .264583.11846.264583.26459 0 .14612-.118454.26459-.264583.26458-.146119 0-.264584-.11846-.264584-.26458 0-.14613.118465-.26458.264584-.26459zm-2.5140579.61806c.2037741.00026.4073498.0777.561205.23151l1.7652679 1.76475c.307708.3077.307708.81367 0 1.12137l-.178284.17829c-.30771.3077-.8136782.3077-1.1213781 0l-1.7652682-1.76475c-.3073294-.30771-.3087106-.81523-.00106-1.12293l.1777683-.17828c.1538499-.15385.3579469-.23031.5617236-.22996zm3.0432239.70486c.146119 0 .264584.11846.264584.26458 0 .14613-.118465.26459-.264584.26459-.146118 0-.264583-.11846-.264583-.26459 0-.14612.118465-.26458.264583-.26458z" font-variant-ligatures="normal" font-variant-position="normal" font-variant-caps="normal" font-variant-numeric="normal" font-variant-alternates="normal" font-feature-settings="normal" text-indent="0" text-align="start" text-decoration-line="none" text-decoration-style="solid" text-decoration-color="rgb(0,0,0)" text-transform="none" text-orientation="mixed" white-space="normal" shape-padding="0" isolation="auto" mix-blend-mode="normal" solid-color="rgb(0,0,0)" solid-opacity="1" vector-effect="none"/></g></svg>